<svg width="34" height="42" viewBox="0 0 34 42" fill="none" xmlns="http://www.w3.org/2000/svg">
<path fill-rule="evenodd" clip-rule="evenodd" d="M17.0004 39.75L18.4754 41.2187C17.6629 42.0312 16.3441 42.0375 15.5316 41.2187L15.5191 41.2062L15.4816 41.1687L15.3504 41.0375C14.6129 40.2812 13.8941 39.5125 13.1816 38.7312C11.4004 36.775 9.69414 34.7562 8.06289 32.675C6.20664 30.2812 4.30664 27.5687 2.86289 24.8937C1.45039 22.2687 0.337891 19.4312 0.337891 16.8312C0.337891 7.37497 7.81914 0.162476 17.0066 0.162476C26.1941 0.162476 33.6754 7.37497 33.6754 16.8312C33.6754 26.2875 32.5629 22.275 31.1504 24.8937C29.7066 27.575 27.8066 30.2812 25.9504 32.675C23.6754 35.5937 21.2441 38.3812 18.6691 41.0375L18.5379 41.1687L18.5004 41.2062L18.4879 41.2187L17.0129 39.75H17.0004ZM17.0004 23.0812C20.4504 23.0812 23.2504 20.2812 23.2504 16.8312C23.2504 13.3812 20.4504 10.5812 17.0004 10.5812C13.5504 10.5812 10.7504 13.3812 10.7504 16.8312C10.7504 20.2812 13.5504 23.0812 17.0004 23.0812Z" fill="#ED1C24"/>
</svg>
