<svg width="50" height="50" viewBox="0 0 50 50" fill="none" xmlns="http://www.w3.org/2000/svg">
    <g clip-path="url(#clip0_4_163)">
        <path d="M24.9821 48.8751C38.1581 48.8751 48.8393 38.1938 48.8393 25.0179C48.8393 11.842 38.1581 1.16077 24.9821 1.16077C11.8062 1.16077 1.125 11.842 1.125 25.0179C1.125 38.1938 11.8062 48.8751 24.9821 48.8751Z" stroke="#F1391C" stroke-width="1.19" />
        <path d="M24.9821 1.33923C28.0714 1.33923 30.6786 3.67852 33.3571 4.78566C36.0357 5.89281 39.625 6.17852 41.7143 8.26781C43.8036 10.3571 44.0536 13.8392 45.1964 16.6249C46.3393 19.4107 48.6428 21.9107 48.6428 24.9999C48.6428 28.0892 46.3036 30.6964 45.1964 33.375C44.0893 36.0535 43.8036 39.6428 41.7143 41.7321C39.625 43.8214 36.1428 44.0714 33.3571 45.2142C30.5714 46.3571 28.0714 48.6607 24.9821 48.6607C21.8928 48.6607 19.2857 46.3214 16.6071 45.2142C13.9286 44.1071 10.3393 43.8214 8.24998 41.7321C6.1607 39.6428 5.9107 36.1607 4.76784 33.375C3.62498 30.5892 1.32141 28.0892 1.32141 24.9999C1.32141 21.9107 3.6607 19.3035 4.76784 16.6249C5.87498 13.9464 6.1607 10.3571 8.24998 8.26781C10.3393 6.17852 13.8214 5.92852 16.6071 4.78566C19.3928 3.64281 21.8928 1.33923 24.9821 1.33923Z" stroke="#F1391C" stroke-width="1.19" />
        <path fill-rule="evenodd" clip-rule="evenodd" d="M24.9822 33.375C29.6072 33.375 33.3572 29.625 33.3572 25C33.3572 20.375 29.6072 16.625 24.9822 16.625C20.3572 16.625 16.6072 20.375 16.6072 25C16.6072 29.625 20.3572 33.375 24.9822 33.375ZM24.9822 31.9643C28.8215 31.9643 31.9465 28.8393 31.9465 25C31.9465 21.1607 28.8215 18.0357 24.9822 18.0357C21.1429 18.0357 18.0179 21.1607 18.0179 25C18.0179 28.8393 21.1429 31.9643 24.9822 31.9643Z" fill="#F1391C" />
    </g>
    <defs>
        <clipPath id="clip0_4_163">
            <rect width="50" height="50" fill="white" />
        </clipPath>
    </defs>
</svg>