<svg width="50" height="50" viewBox="0 0 50 50" fill="none" xmlns="http://www.w3.org/2000/svg">
    <g clip-path="url(#clip0_4_199)">
        <mask id="mask0_4_199" style="mask-type:luminance" maskUnits="userSpaceOnUse" x="-1" y="-1" width="51" height="51">
            <path d="M49.9108 -0.125H-0.0892334V49.875H49.9108V-0.125Z" fill="white" />
        </mask>
        <g mask="url(#mask0_4_199)">
            <path fill-rule="evenodd" clip-rule="evenodd" d="M34.8037 41.6429V39.2858H48.7501C49.4287 39.2858 49.9644 38.7322 49.9644 38.0715V12.2679C49.9644 11.5893 49.4108 11.0536 48.7501 11.0536H34.8037V8.25005C34.8037 7.57148 34.2501 7.03577 33.5894 7.03577H21.9822C21.3037 7.03577 20.7679 7.58934 20.7679 8.25005V10.8215H16.8572C16.1787 10.8215 15.6429 11.3751 15.6429 12.0358V14.0358H13.0179V12.0358C13.0179 11.3572 12.4644 10.8215 11.8037 10.8215H7.23223C6.55366 10.8215 6.01794 11.3751 6.01794 12.0358V14.0358H0.267944V16.3036H6.00009V34.2322H0.267944V36.5001H6.00009V37.6786C6.00009 38.3572 6.55366 38.8929 7.21437 38.8929H11.7858C12.4644 38.8929 13.0001 38.3393 13.0001 37.6786V36.9643H15.6251V37.6965C15.6251 38.3751 16.1787 38.9108 16.8394 38.9108H20.7501V41.6429C20.7501 42.3215 21.3037 42.8572 21.9644 42.8572H33.5715C34.2501 42.8572 34.7858 42.3036 34.7858 41.6429H34.8037ZM15.6429 34.6965V16.3036H13.0179V34.6965H15.6429ZM32.1787 12.2679C32.1787 11.9286 32.3215 11.6251 32.5358 11.4108V9.30362H23.0358V15.3751H32.1608V12.2858L32.1787 12.2679ZM23.0537 33.5358V17.6429H32.1787V33.5358H23.0537ZM23.0537 35.8036V40.5715H32.5537V38.9108C32.3394 38.6965 32.1965 38.375 32.1965 38.0536V35.8036H23.0537ZM47.6965 13.3215H34.8215V37H47.6965V13.3215ZM8.2858 13.0715H10.7501V36.6251H8.2858V13.0715ZM17.9108 13.0715H20.7144V36.6251H17.9108V13.0715Z" fill="#F1391C" />
        </g>
        <path d="M48.0357 13.4464L33.5357 26.4643" stroke="#F1391C" stroke-width="1.26" />
        <path d="M49.0714 22.1786L34.4107 36.8393" stroke="#F1391C" stroke-width="1.26" />
    </g>
    <defs>
        <clipPath id="clip0_4_199">
            <rect width="50" height="50" fill="white" />
        </clipPath>
    </defs>
</svg>