<svg width="50" height="50" viewBox="0 0 50 50" fill="none" xmlns="http://www.w3.org/2000/svg">
    <path d="M8.21426 24.2858H32.3214C35.8928 24.2858 38.9285 27.1429 38.9285 30.8929C38.9285 34.4643 36.0714 37.5001 32.3214 37.5001H8.21426C4.64283 37.5001 1.60712 34.6429 1.60712 30.8929C1.60712 27.3215 4.64283 24.2858 8.21426 24.2858Z" stroke="#F1391C" stroke-width="1.2" />
    <path d="M41.7857 24.1072C39.8214 24.1072 38.0357 25 36.9643 26.25C35.7143 25 34.1071 24.1072 32.1428 24.1072C28.5714 24.1072 25.5357 27.1429 25.5357 30.7143C25.5357 34.2858 28.5714 37.3215 32.1428 37.3215C35.7143 37.3215 35.8928 36.4286 36.9643 35.1786C38.2143 36.4286 39.8214 37.3215 41.7857 37.3215C45.3571 37.3215 48.3928 34.2858 48.3928 30.7143C48.3928 27.1429 45.3571 24.1072 41.7857 24.1072Z" stroke="#F1391C" stroke-width="1.2" />
    <path d="M12.3214 10.5358H36.9642C40.5357 10.5358 43.5714 13.5715 43.5714 17.1429C43.5714 20.7143 40.7142 23.7501 36.9642 23.7501H12.3214C8.74995 23.7501 5.71423 20.8929 5.71423 17.1429C5.71423 13.5715 8.74995 10.5358 12.3214 10.5358Z" stroke="#F1391C" stroke-width="1.2" />
    <path d="M36.9643 23.7501C40.6133 23.7501 43.5714 20.7919 43.5714 17.1429C43.5714 13.4939 40.6133 10.5358 36.9643 10.5358C33.3152 10.5358 30.3571 13.4939 30.3571 17.1429C30.3571 20.7919 33.3152 23.7501 36.9643 23.7501Z" stroke="#F1391C" stroke-width="1.2" />
</svg>