<svg width="49" height="49" viewBox="0 0 49 49" fill="none" xmlns="http://www.w3.org/2000/svg">
    <path d="M25.025 32.375C33.6268 32.375 40.6 25.4018 40.6 16.8C40.6 8.19814 33.6268 1.22498 25.025 1.22498C16.4232 1.22498 9.45001 8.19814 9.45001 16.8C9.45001 25.4018 16.4232 32.375 25.025 32.375Z" stroke="#F1391C" stroke-width="1.2" />
    <path d="M26.775 15.0499L19.25 22.3999" stroke="#F1391C" stroke-width="1.2" stroke-linecap="round" stroke-linejoin="round" />
    <path d="M14.175 27.65L16.45 25.375" stroke="#F1391C" stroke-width="1.2" stroke-linecap="round" stroke-linejoin="round" />
    <path d="M33.775 8.4L36.05 6.125" stroke="#F1391C" stroke-width="1.2" stroke-linecap="round" stroke-linejoin="round" />
    <path d="M35.7 27.65L33.425 25.375" stroke="#F1391C" stroke-width="1.2" stroke-linecap="round" stroke-linejoin="round" />
    <path d="M16.275 8.4L14 6.125" stroke="#F1391C" stroke-width="1.2" stroke-linecap="round" stroke-linejoin="round" />
    <path d="M25.025 4.72502V1.40002" stroke="#F1391C" stroke-width="1.2" stroke-linecap="round" stroke-linejoin="round" />
    <path d="M12.95 16.7999H9.79999" stroke="#F1391C" stroke-width="1.2" stroke-linecap="round" stroke-linejoin="round" />
    <path d="M40.25 16.7999H37.1" stroke="#F1391C" stroke-width="1.2" stroke-linecap="round" stroke-linejoin="round" />
    <path d="M30.625 36.225V33.075C30.625 32.025 29.925 31.325 28.875 31.325H21.175C20.125 31.325 19.425 32.025 19.425 33.075V36.225C19.425 37.1 20.125 37.8 20.825 37.975V39.2C19.95 39.2 19.425 40.075 19.425 40.95V44.1C19.425 44.975 20.125 45.675 20.825 45.85V48.475C20.825 48.825 21 49 21.35 49H28.525C28.875 49 29.05 48.825 29.05 48.475V45.85C29.75 45.675 30.45 44.975 30.45 44.1V40.95C30.45 40.075 29.925 39.375 29.05 39.2V37.975C29.75 37.8 30.45 37.1 30.45 36.225H30.625ZM27.3 38.15V38.85C27.3 38.85 27.3 38.85 27.125 38.85H23.1V38.15H27.125H27.3ZM21.35 33.425C21.35 33.25 21.525 33.075 21.875 33.075C24.15 33.775 26.25 33.95 28.175 33.075C28.35 33.075 28.7 33.075 28.7 33.425V35.875C28.7 36.05 28.35 36.225 28.175 36.225H21.875C21.7 36.225 21.35 36.225 21.35 35.875V33.425ZM27.3 47.075H23.1H22.925V46.2C22.925 46.2 22.925 46.2 23.1 46.2H27.3V47.075ZM28.7 43.575C28.7 43.75 28.7 43.925 28.35 43.925H21.7C21.525 43.925 21.35 43.925 21.35 43.575V41.475C21.35 41.3 21.35 41.125 21.7 41.125H28.35C28.525 41.125 28.7 41.125 28.7 41.475V43.575Z" fill="#F1391C" />
</svg>