<svg width="36" height="36" viewBox="0 0 36 36" fill="none" xmlns="http://www.w3.org/2000/svg">
    <g clip-path="url(#clip0_4_257)">
        <mask id="mask0_4_257" style="mask-type:luminance" maskUnits="userSpaceOnUse" x="0" y="0" width="36" height="36">
            <path d="M36 0H0V36H36V0Z" fill="white" />
        </mask>
        <g mask="url(#mask0_4_257)">
            <path fill-rule="evenodd" clip-rule="evenodd" d="M14.8735 -0.0251465H1.88778C0.833495 -0.0251465 -0.0150757 0.823425 -0.0150757 1.86486V14.8635C-0.0150757 15.9178 0.833495 16.7663 1.88778 16.7663H14.8864C15.9407 16.7663 16.7892 15.9178 16.7892 14.8635V1.86486C16.7764 0.823425 15.9278 -0.0251465 14.8735 -0.0251465ZM14.4492 12.4077C14.4492 13.552 13.5235 14.4778 12.3792 14.4778H4.30492C3.16064 14.4778 2.23492 13.552 2.23492 12.4077V4.33343C2.23492 3.18914 3.16064 2.26343 4.30492 2.26343H12.3792C13.5235 2.26343 14.4492 3.18914 14.4492 4.33343V12.4077Z" fill="#F1391C" />
            <path fill-rule="evenodd" clip-rule="evenodd" d="M34.1469 -0.0248626H21.1485C20.0942 -0.0248626 19.2456 0.823709 19.2456 1.87799V14.8766C19.2456 15.9308 20.0942 16.7794 21.1485 16.7794H34.1469C35.2012 16.7794 36.0499 15.9308 36.0499 14.8766V1.86513C36.0499 0.810852 35.2012 -0.0377197 34.1469 -0.0377197V-0.0248626ZM33.7226 12.408C33.7226 13.5523 32.797 14.478 31.6527 14.478H23.5783C22.434 14.478 21.5083 13.5523 21.5083 12.408V4.3337C21.5083 3.18942 22.434 2.2637 23.5783 2.2637H31.6527C32.797 2.2637 33.7226 3.18942 33.7226 4.3337V12.408Z" fill="#F1391C" />
            <path fill-rule="evenodd" clip-rule="evenodd" d="M14.8735 19.1702H1.88778C0.833495 19.1702 -0.0150757 20.0187 -0.0150757 21.073V34.0716C-0.0150757 35.1259 0.833495 35.9745 1.88778 35.9745H14.8864C15.9407 35.9745 16.7892 35.1259 16.7892 34.0716V21.073C16.7892 20.0187 15.9407 19.1702 14.8864 19.1702H14.8735ZM14.4492 31.603C14.4492 32.7473 13.5235 33.673 12.3792 33.673H4.30492C3.16064 33.673 2.23492 32.7473 2.23492 31.603V23.5287C2.23492 22.3845 3.16064 21.4587 4.30492 21.4587H12.3792C13.5235 21.4587 14.4492 22.3845 14.4492 23.5287V31.603Z" fill="#F1391C" />
            <path fill-rule="evenodd" clip-rule="evenodd" d="M34.1469 19.1702H21.1485C20.0942 19.1702 19.2456 20.0187 19.2456 21.073V34.0716C19.2456 35.1259 20.0942 35.9745 21.1485 35.9745H34.1469C35.2012 35.9745 36.0499 35.1259 36.0499 34.0716V21.073C36.0499 20.0187 35.2012 19.1702 34.1469 19.1702ZM33.7226 31.603C33.7226 32.7473 32.797 33.673 31.6527 33.673H23.5783C22.434 33.673 21.5083 32.7473 21.5083 31.603V23.5287C21.5083 22.3845 22.434 21.4587 23.5783 21.4587H31.6527C32.797 21.4587 33.7226 22.3845 33.7226 23.5287V31.603Z" fill="#F1391C" />
        </g>
    </g>
    <defs>
        <clipPath id="clip0_4_257">
            <rect width="36" height="36" fill="white" />
        </clipPath>
    </defs>
</svg>