<svg width="50" height="50" viewBox="0 0 50 50" fill="none" xmlns="http://www.w3.org/2000/svg">
    <path d="M32.7322 11.25H3.16072C2.08574 11.25 1.21429 12.1214 1.21429 13.1964V36.5357C1.21429 37.6107 2.08574 38.4821 3.16072 38.4821H32.7322C33.8071 38.4821 34.6786 37.6107 34.6786 36.5357V13.1964C34.6786 12.1214 33.8071 11.25 32.7322 11.25Z" stroke="#F1391C" stroke-width="1.26" />
    <path d="M34.6964 15.1428H46.8214C47.8928 15.1428 48.7678 16.0178 48.7678 17.0893V32.6785C48.7678 33.75 47.8928 34.625 46.8214 34.625H34.6964V15.1428Z" stroke="#F1391C" stroke-width="1.26" />
    <path d="M44.7679 14.9464L34.8929 24.8214" stroke="#F1391C" stroke-width="1.19" />
    <path d="M48.7143 21.0892L35.6071 34.1964" stroke="#F1391C" stroke-width="1.19" />
    <path d="M5.67859 26.1964C8.73216 26.7142 10 24.6964 9.14287 22.7857C8.62502 21.6249 7.50002 21.4642 6.19645 21.4642H4.92859V29.4285" stroke="#F1391C" stroke-width="1.19" stroke-linecap="round" stroke-linejoin="round" />
    <path d="M14.7143 21.5536V29.4464" stroke="#F1391C" stroke-width="1.19" stroke-linecap="round" stroke-linejoin="round" />
    <path d="M12 21.4642H17.3036" stroke="#F1391C" stroke-width="1.19" stroke-linecap="round" stroke-linejoin="round" />
    <path d="M19.9107 21.5V29.3929" stroke="#F1391C" stroke-width="1.19" stroke-linecap="round" stroke-linejoin="round" />
    <path d="M19.9286 21.4108H23.8214" stroke="#F1391C" stroke-width="1.19" stroke-linecap="round" stroke-linejoin="round" />
    <path d="M20.0179 25.4286H23.8215" stroke="#F1391C" stroke-width="1.19" stroke-linecap="round" stroke-linejoin="round" />
    <path d="M26.4464 21.5V29.3929" stroke="#F1391C" stroke-width="1.19" stroke-linecap="round" stroke-linejoin="round" />
    <path d="M26.4464 21.4108H30.3393" stroke="#F1391C" stroke-width="1.19" stroke-linecap="round" stroke-linejoin="round" />
    <path d="M26.5536 25.4286H30.3393" stroke="#F1391C" stroke-width="1.19" stroke-linecap="round" stroke-linejoin="round" />
    <path d="M26.6429 29.4464H30.4465" stroke="#F1391C" stroke-width="1.19" stroke-linecap="round" stroke-linejoin="round" />
</svg>