<svg width="50" height="50" viewBox="0 0 50 50" fill="none" xmlns="http://www.w3.org/2000/svg">
    <path fill-rule="evenodd" clip-rule="evenodd" d="M18.3036 11.9464H3.44648C2.82148 11.9464 2.32148 12.4464 2.32148 13.0536V36.6071C2.32148 37.2143 2.82148 37.7143 3.44648 37.7143H18.3036C18.9286 37.7143 19.4286 37.2143 19.4286 36.6071V13.0536C19.4286 12.4464 18.9286 11.9464 18.3036 11.9464ZM3.94648 10C1.8572 10 0.160767 11.6964 0.160767 13.7857V36.2321C0.160767 38.3214 1.8572 40.0179 3.94648 40.0179H17.8215C19.9108 40.0179 21.6072 38.3214 21.6072 36.2321V34.3036H34.1072C36.1965 34.3036 37.8929 32.6071 37.8929 30.5179V30.3214H48.0179C49.0179 30.3214 49.8393 29.5 49.8393 28.5V22.3393C49.8393 21.3393 49.0179 20.5179 48.0179 20.5179H37.8929V19.5C37.8929 17.4107 36.1965 15.7143 34.1072 15.7143H21.6072V13.7857C21.6072 11.6964 19.9108 10 17.8215 10H3.94648ZM30.1965 17.7321H23.1251C22.6251 17.7321 22.2143 18.1429 22.2143 18.6429V26.5L30.1965 17.7321ZM33.3929 17.75L22.4643 29.7857C22.3036 29.9464 22.2322 30.1786 22.2322 30.3929V32.1964H24.1251C24.3751 32.1964 24.6251 32.0893 24.8036 31.8929L35.1965 20.4643V18.9107C35.1965 18.2679 34.7322 17.75 34.1429 17.75H33.3929ZM34.0001 32.1964H27.6608L35.1786 24V30.9286C35.1786 31.625 34.6608 32.1964 34.0179 32.1964H34.0001ZM39.5001 22.625H46.6608C47.1608 22.625 47.5715 23.0357 47.5715 23.5357V27.2321C47.5715 27.7321 47.1608 28.1429 46.6608 28.1429H39.5001C39.0001 28.1429 38.5893 27.7321 38.5893 27.2321V23.5357C38.5893 23.0357 39.0001 22.625 39.5001 22.625Z" fill="#F1391C" />
</svg>