<svg width="50" height="50" viewBox="0 0 50 50" fill="none" xmlns="http://www.w3.org/2000/svg">
    <g clip-path="url(#clip0_4_174)">
        <path d="M24.7678 38.8035C32.1448 38.8035 38.125 32.8233 38.125 25.4464C38.125 18.0694 32.1448 12.0892 24.7678 12.0892C17.3909 12.0892 11.4107 18.0694 11.4107 25.4464C11.4107 32.8233 17.3909 38.8035 24.7678 38.8035Z" fill="#F1391C" />
        <path d="M46.9821 1.28577H3.10712C2.07158 1.28577 1.23212 2.12523 1.23212 3.16077V47.0358C1.23212 48.0713 2.07158 48.9108 3.10712 48.9108H46.9821C48.0176 48.9108 48.8571 48.0713 48.8571 47.0358V3.16077C48.8571 2.12523 48.0176 1.28577 46.9821 1.28577Z" stroke="#F1391C" stroke-width="1.19" />
    </g>
    <defs>
        <clipPath id="clip0_4_174">
            <rect width="50" height="50" fill="white" />
        </clipPath>
    </defs>
</svg>